<mxfile host="app.diagrams.net" modified="2024-05-14T03:15:23.168Z" agent="Mozilla/5.0 (Windows NT 10.0; Win64; x64) AppleWebKit/537.36 (KHTML, like Gecko) Chrome/124.0.0.0 Safari/537.36 Edg/124.0.0.0" etag="tZxXI69Ew9AxF10UZ_cw" version="24.2.5" type="github">
  <diagram name="第 1 页" id="4fSdd0Z58REqMZebshJA">
    <mxGraphModel dx="1044" dy="591" grid="1" gridSize="10" guides="1" tooltips="1" connect="1" arrows="1" fold="1" page="1" pageScale="1" pageWidth="827" pageHeight="1169" math="1" shadow="0">
      <root>
        <mxCell id="0" />
        <mxCell id="1" parent="0" />
        <mxCell id="25tm6MiVh5p15wGrFQqw-2" value="`x_1`" style="ellipse;whiteSpace=wrap;html=1;fillColor=#dae8fc;strokeColor=#6c8ebf;" vertex="1" parent="1">
          <mxGeometry x="160" y="130" width="40" height="30" as="geometry" />
        </mxCell>
        <mxCell id="25tm6MiVh5p15wGrFQqw-3" value="`x_2`" style="ellipse;whiteSpace=wrap;html=1;fillColor=#dae8fc;strokeColor=#6c8ebf;" vertex="1" parent="1">
          <mxGeometry x="240" y="130" width="40" height="30" as="geometry" />
        </mxCell>
        <mxCell id="25tm6MiVh5p15wGrFQqw-4" value="`x_{t-1}`" style="ellipse;whiteSpace=wrap;html=1;fillColor=#dae8fc;strokeColor=#6c8ebf;" vertex="1" parent="1">
          <mxGeometry x="400" y="130" width="40" height="30" as="geometry" />
        </mxCell>
        <mxCell id="25tm6MiVh5p15wGrFQqw-5" value="`x_t`" style="ellipse;whiteSpace=wrap;html=1;fillColor=#dae8fc;strokeColor=#6c8ebf;" vertex="1" parent="1">
          <mxGeometry x="480" y="130" width="40" height="30" as="geometry" />
        </mxCell>
        <mxCell id="25tm6MiVh5p15wGrFQqw-18" value="" style="edgeStyle=orthogonalEdgeStyle;rounded=0;orthogonalLoop=1;jettySize=auto;html=1;fillColor=#ffe6cc;strokeColor=#d79b00;" edge="1" parent="1" source="25tm6MiVh5p15wGrFQqw-6" target="25tm6MiVh5p15wGrFQqw-7">
          <mxGeometry relative="1" as="geometry" />
        </mxCell>
        <mxCell id="25tm6MiVh5p15wGrFQqw-6" value="`y_1`" style="rounded=0;whiteSpace=wrap;html=1;fillColor=#ffe6cc;strokeColor=#d79b00;" vertex="1" parent="1">
          <mxGeometry x="160" y="200" width="40" height="30" as="geometry" />
        </mxCell>
        <mxCell id="25tm6MiVh5p15wGrFQqw-7" value="`y_2`" style="rounded=0;whiteSpace=wrap;html=1;fillColor=#ffe6cc;strokeColor=#d79b00;" vertex="1" parent="1">
          <mxGeometry x="240" y="200" width="40" height="30" as="geometry" />
        </mxCell>
        <mxCell id="25tm6MiVh5p15wGrFQqw-8" value="`y_{t-1}`" style="rounded=0;whiteSpace=wrap;html=1;fillColor=#ffe6cc;strokeColor=#d79b00;" vertex="1" parent="1">
          <mxGeometry x="400" y="200" width="40" height="30" as="geometry" />
        </mxCell>
        <mxCell id="25tm6MiVh5p15wGrFQqw-9" value="`y_t`" style="rounded=0;whiteSpace=wrap;html=1;fillColor=#ffe6cc;strokeColor=#d79b00;" vertex="1" parent="1">
          <mxGeometry x="480" y="200" width="40" height="30" as="geometry" />
        </mxCell>
        <mxCell id="25tm6MiVh5p15wGrFQqw-10" value="" style="endArrow=classic;html=1;rounded=0;exitX=1;exitY=0.5;exitDx=0;exitDy=0;entryX=0;entryY=0.5;entryDx=0;entryDy=0;fillColor=#dae8fc;strokeColor=#6c8ebf;" edge="1" parent="1" source="25tm6MiVh5p15wGrFQqw-2" target="25tm6MiVh5p15wGrFQqw-3">
          <mxGeometry width="50" height="50" relative="1" as="geometry">
            <mxPoint x="370" y="300" as="sourcePoint" />
            <mxPoint x="420" y="250" as="targetPoint" />
          </mxGeometry>
        </mxCell>
        <mxCell id="25tm6MiVh5p15wGrFQqw-11" value="" style="endArrow=classic;html=1;rounded=0;exitX=1;exitY=0.5;exitDx=0;exitDy=0;entryX=0;entryY=0.5;entryDx=0;entryDy=0;fillColor=#dae8fc;strokeColor=#6c8ebf;" edge="1" parent="1">
          <mxGeometry width="50" height="50" relative="1" as="geometry">
            <mxPoint x="280" y="144.66" as="sourcePoint" />
            <mxPoint x="320" y="144.66" as="targetPoint" />
          </mxGeometry>
        </mxCell>
        <mxCell id="25tm6MiVh5p15wGrFQqw-12" value="..." style="text;html=1;align=center;verticalAlign=middle;whiteSpace=wrap;rounded=0;" vertex="1" parent="1">
          <mxGeometry x="300" y="110" width="80" height="57.5" as="geometry" />
        </mxCell>
        <mxCell id="25tm6MiVh5p15wGrFQqw-15" value="" style="endArrow=classic;html=1;rounded=0;exitX=1;exitY=0.5;exitDx=0;exitDy=0;entryX=0;entryY=0.5;entryDx=0;entryDy=0;fillColor=#dae8fc;strokeColor=#6c8ebf;" edge="1" parent="1">
          <mxGeometry width="50" height="50" relative="1" as="geometry">
            <mxPoint x="360" y="144.66" as="sourcePoint" />
            <mxPoint x="400" y="144.66" as="targetPoint" />
          </mxGeometry>
        </mxCell>
        <mxCell id="25tm6MiVh5p15wGrFQqw-16" value="" style="endArrow=classic;html=1;rounded=0;exitX=1;exitY=0.5;exitDx=0;exitDy=0;entryX=0;entryY=0.5;entryDx=0;entryDy=0;fillColor=#dae8fc;strokeColor=#6c8ebf;" edge="1" parent="1">
          <mxGeometry width="50" height="50" relative="1" as="geometry">
            <mxPoint x="440" y="144.66" as="sourcePoint" />
            <mxPoint x="480" y="144.66" as="targetPoint" />
          </mxGeometry>
        </mxCell>
        <mxCell id="25tm6MiVh5p15wGrFQqw-17" value="" style="endArrow=classic;html=1;rounded=0;exitX=1;exitY=0.5;exitDx=0;exitDy=0;entryX=0;entryY=0.5;entryDx=0;entryDy=0;fillColor=#ffe6cc;strokeColor=#d79b00;" edge="1" parent="1">
          <mxGeometry width="50" height="50" relative="1" as="geometry">
            <mxPoint x="200" y="214.66" as="sourcePoint" />
            <mxPoint x="240" y="214.66" as="targetPoint" />
          </mxGeometry>
        </mxCell>
        <mxCell id="25tm6MiVh5p15wGrFQqw-19" value="" style="endArrow=classic;html=1;rounded=0;exitX=1;exitY=0.5;exitDx=0;exitDy=0;entryX=0;entryY=0.5;entryDx=0;entryDy=0;fillColor=#ffe6cc;strokeColor=#d79b00;" edge="1" parent="1">
          <mxGeometry width="50" height="50" relative="1" as="geometry">
            <mxPoint x="280" y="214.66" as="sourcePoint" />
            <mxPoint x="320" y="214.66" as="targetPoint" />
          </mxGeometry>
        </mxCell>
        <mxCell id="25tm6MiVh5p15wGrFQqw-20" value="..." style="text;html=1;align=center;verticalAlign=middle;whiteSpace=wrap;rounded=0;" vertex="1" parent="1">
          <mxGeometry x="300" y="180" width="80" height="57.5" as="geometry" />
        </mxCell>
        <mxCell id="25tm6MiVh5p15wGrFQqw-21" value="" style="endArrow=classic;html=1;rounded=0;exitX=1;exitY=0.5;exitDx=0;exitDy=0;entryX=0;entryY=0.5;entryDx=0;entryDy=0;fillColor=#ffe6cc;strokeColor=#d79b00;" edge="1" parent="1">
          <mxGeometry width="50" height="50" relative="1" as="geometry">
            <mxPoint x="360" y="214.66" as="sourcePoint" />
            <mxPoint x="400" y="214.66" as="targetPoint" />
          </mxGeometry>
        </mxCell>
        <mxCell id="25tm6MiVh5p15wGrFQqw-22" value="" style="endArrow=classic;html=1;rounded=0;exitX=1;exitY=0.5;exitDx=0;exitDy=0;entryX=0;entryY=0.5;entryDx=0;entryDy=0;fillColor=#ffe6cc;strokeColor=#d79b00;" edge="1" parent="1">
          <mxGeometry width="50" height="50" relative="1" as="geometry">
            <mxPoint x="440" y="214.66" as="sourcePoint" />
            <mxPoint x="480" y="214.66" as="targetPoint" />
          </mxGeometry>
        </mxCell>
        <mxCell id="25tm6MiVh5p15wGrFQqw-23" value="" style="endArrow=classic;html=1;rounded=0;exitX=0.5;exitY=1;exitDx=0;exitDy=0;" edge="1" parent="1" source="25tm6MiVh5p15wGrFQqw-2">
          <mxGeometry width="50" height="50" relative="1" as="geometry">
            <mxPoint x="130" y="350" as="sourcePoint" />
            <mxPoint x="180" y="200" as="targetPoint" />
          </mxGeometry>
        </mxCell>
        <mxCell id="25tm6MiVh5p15wGrFQqw-24" value="" style="endArrow=classic;html=1;rounded=0;exitX=0.5;exitY=1;exitDx=0;exitDy=0;" edge="1" parent="1">
          <mxGeometry width="50" height="50" relative="1" as="geometry">
            <mxPoint x="259.65999999999997" y="160" as="sourcePoint" />
            <mxPoint x="259.65999999999997" y="200" as="targetPoint" />
          </mxGeometry>
        </mxCell>
        <mxCell id="25tm6MiVh5p15wGrFQqw-25" value="" style="endArrow=classic;html=1;rounded=0;exitX=0.5;exitY=1;exitDx=0;exitDy=0;" edge="1" parent="1">
          <mxGeometry width="50" height="50" relative="1" as="geometry">
            <mxPoint x="420" y="160" as="sourcePoint" />
            <mxPoint x="420" y="200" as="targetPoint" />
          </mxGeometry>
        </mxCell>
        <mxCell id="25tm6MiVh5p15wGrFQqw-26" value="" style="endArrow=classic;html=1;rounded=0;exitX=0.5;exitY=1;exitDx=0;exitDy=0;" edge="1" parent="1">
          <mxGeometry width="50" height="50" relative="1" as="geometry">
            <mxPoint x="499.65999999999997" y="160" as="sourcePoint" />
            <mxPoint x="499.65999999999997" y="200" as="targetPoint" />
          </mxGeometry>
        </mxCell>
        <mxCell id="25tm6MiVh5p15wGrFQqw-27" value="观测序列" style="text;html=1;align=center;verticalAlign=middle;whiteSpace=wrap;rounded=0;" vertex="1" parent="1">
          <mxGeometry x="310" y="237.5" width="60" height="30" as="geometry" />
        </mxCell>
        <mxCell id="25tm6MiVh5p15wGrFQqw-28" value="状态序列" style="text;html=1;align=center;verticalAlign=middle;whiteSpace=wrap;rounded=0;" vertex="1" parent="1">
          <mxGeometry x="310" y="100" width="60" height="30" as="geometry" />
        </mxCell>
      </root>
    </mxGraphModel>
  </diagram>
</mxfile>
